<svg id="Lag_2" data-name="Lag 2" xmlns="http://www.w3.org/2000/svg" viewBox="0 0 103.96 134.1"><defs><style>.cls-1{fill:none;stroke:#232856;stroke-miterlimit:10;stroke-width:3px;}</style></defs><polygon class="cls-1" points="20.27 23.93 11.09 25.07 13.39 35.39 5.13 40.21 9.49 47.09 2.15 55.11 11.21 62.91 7.42 71.85 17.05 75.52 15.68 85.84 26 85.84 28.52 95.24 38.38 92.49 44.34 101.89 52.14 94.55 61.31 100.74 65.67 92.72 75.53 96.39 78.28 85.61 89.05 86.76 87.91 75.98 98.46 72.54 92.95 62.91 101.67 56.49 94.56 49.38 100.75 40.21 91.35 34.94 94.1 25.07 83.09 23.93 82.63 13.15 72.55 15.67 68.42 5.81 60.62 10.4 53.05 2.38 47.32 10.63 36.09 4.67 33.1 15.67 22.1 12.92 20.27 23.93"/><path class="cls-1" d="M211.36,157.11c-5.28,8.48-26.16,30.77-29.12,33.93l-20.87-18.8a3.5,3.5,0,0,1-.57-.34,5.24,5.24,0,0,1-1.72-5.05,4.93,4.93,0,0,1,2.17-3.44c2.21-1.26,4.87.18,5.39.46a7.74,7.74,0,0,1,1,.69l13.64,12.84,22.24-26.14a11.2,11.2,0,0,1,.92-.92c1-.86,2.62-2.29,4.7-2.17a4.65,4.65,0,0,1,3.78,2.17C213.45,151.27,213.83,153.13,211.36,157.11Z" transform="translate(-134 -117.36)"/><polyline class="cls-1" points="22.25 86.16 8.72 116.54 28.21 109.2 36.35 129.96 52.17 95.67"/><polyline class="cls-1" points="82.56 86.14 96.85 116.18 77.18 109.33 69.57 130.28 52.89 96.41"/></svg>