<svg id="Lag_3" data-name="Lag 3" xmlns="http://www.w3.org/2000/svg" viewBox="0 0 172.2 127.68"><defs><style>.cls-1,.cls-2{fill:none;stroke:#232856;stroke-miterlimit:10;stroke-width:3px;}.cls-2{stroke-linecap:round;}</style></defs><rect class="cls-1" x="359.66" y="243.46" width="23.82" height="51.88" transform="translate(-43.36 -422.86) rotate(45)"/><rect class="cls-1" x="474.08" y="241.97" width="23.82" height="51.88" transform="translate(676.4 -125.32) rotate(135)"/><path class="cls-1" d="M388.15,330a36,36,0,0,1-9.18-9.4,41.2,41.2,0,0,1-4.35-8.94c-1.64-4.72-1.12-6-2.52-9a19.57,19.57,0,0,0-7.34-8" transform="translate(-342.69 -239.03)"/><path class="cls-1" d="M423.56,273.5a13.51,13.51,0,0,0-6.11-1.06c-2.75.19-3.84,1.19-6.57,1.32a13.64,13.64,0,0,1-6.34-1.32,19.06,19.06,0,0,1-8.68-8.48" transform="translate(-342.69 -239.03)"/><path class="cls-2" d="M463.59,262.35c-1,2.44-3,6.19-6.59,7.3-2,.6-3.4.1-8.72-1.22-6.49-1.62-9.73-2.42-11.06-2.43-3.81,0-7,1.85-13.66,7.78A183.2,183.2,0,0,0,405.66,292a8,8,0,0,0-2.59,3.17,8.52,8.52,0,0,0,.71,8c2.16,3.27,6.15,3.92,8.94,3.4a10.09,10.09,0,0,0,6.36-4.37L433,288.12" transform="translate(-342.69 -239.03)"/><path class="cls-1" d="M462,267.91" transform="translate(-342.69 -239.03)"/><polyline class="cls-2" points="85.11 57.04 92.47 63.92 98.89 67.74 109.2 67.74"/><circle class="cls-2" cx="49.51" cy="97.01" r="7.66"/><circle class="cls-2" cx="59.83" cy="108.06" r="7.66"/><circle class="cls-2" cx="70.71" cy="118.52" r="7.66"/><path class="cls-2" d="M407.78,332.06l19,18.81a5.49,5.49,0,0,1,.93.91,6.14,6.14,0,0,1,1.15,4.82c-.51,2.53-3.13,4.63-6.42,4.81" transform="translate(-342.69 -239.03)"/><path class="cls-2" d="M417.38,324.5l21.46,22.24a24.08,24.08,0,0,1,1.73,1.83c1.58,1.86,2.57,3,2.75,4.36.3,2.13-1.32,4.44-3.21,5.5-2.57,1.46-6.15.86-8.71-1.6" transform="translate(-342.69 -239.03)"/><path class="cls-2" d="M425.44,312.34l27.29,28.44a8.79,8.79,0,0,1,1.6,1.08,8.42,8.42,0,0,1,3.21,5.57c0,.45.33,3.87-2.06,6s-5.57,1.45-7.34,1.15a12.77,12.77,0,0,1-3-.92" transform="translate(-342.69 -239.03)"/><path class="cls-2" d="M441.57,306.76l20.34,21.4a13.51,13.51,0,0,1,2.63,4c.71,1.65,2.41,5.59.47,8.62-1.77,2.76-5.4,2.94-6,2.95" transform="translate(-342.69 -239.03)"/><path class="cls-2" d="M488.81,290.1a41.68,41.68,0,0,0-5.95,7,26.35,26.35,0,0,0-4.13,8c-.78,2.77-.4,3.59-1.37,6.81a30.34,30.34,0,0,1-2.52,5.87,43.39,43.39,0,0,1-8.93,11.27" transform="translate(-342.69 -239.03)"/></svg>