<svg id="Lag_2" data-name="Lag 2" xmlns="http://www.w3.org/2000/svg" viewBox="0 0 47.96 50.54"><defs><style>.cls-1{fill:none;stroke:#282e69;stroke-miterlimit:10;stroke-width:3px;}</style></defs><path class="cls-1" d="M149.91,152.85a2.69,2.69,0,0,1-.93,0,3.1,3.1,0,0,1-1.33-.68,5.72,5.72,0,0,1-1.58-2.51c-.76-2.14-1.28-3.85-1.39-4.24s-.6-1.76-1.58-4.61a9.06,9.06,0,0,0-1.77-3.5,3.32,3.32,0,0,0-2-1.24,3,3,0,0,0-1.88.41c-1,.55-1.46,1.48-2.11,3.12-.94,2.41-1.16,3.54-2.23,6.69-.21.63-.53,1.54-1,2.69a11.44,11.44,0,0,1-1,2.2,4.33,4.33,0,0,1-2.35,1.76c-2.28.55-4.33-1.76-4.61-2.07a8.44,8.44,0,0,1-1.34-2.23,18.47,18.47,0,0,1-1.48-4.46,44.39,44.39,0,0,1-.34-5.26c0-1-.09-1.89-.19-3.74a28.57,28.57,0,0,0-.34-4.28,19.61,19.61,0,0,0-.93-3.25c-.23-.6-.39-1-1.42-3.15A18.08,18.08,0,0,1,117,122a11,11,0,0,1-.34-1.64,14.66,14.66,0,0,1-.15-4.08,11.39,11.39,0,0,1,1.92-4.86,13.61,13.61,0,0,1,3.09-3.41,12.12,12.12,0,0,1,6-2.51,12.3,12.3,0,0,1,5.08.56c1.81.57,1.69,1.14,3.55,1.74a8.09,8.09,0,0,0,5,.3c.86-.27.83-.49,2.63-1.26a21.32,21.32,0,0,1,2.75-1,12.08,12.08,0,0,1,5.95,0,11.87,11.87,0,0,1,5.2,2.91,13.84,13.84,0,0,1,3,5,11.64,11.64,0,0,1,.65,3.8,19,19,0,0,1-.09,3.1,12.84,12.84,0,0,1-.84,3c-1,2.64-2.53,4.75-2.85,6.32a10.87,10.87,0,0,0-.18,1.45c0,.25,0,.52,0,1s0,1.07,0,1.33c0,.51,0,1,0,2.05,0,1.23,0,1.49,0,2.35,0,1.26,0,2.57,0,2.57,0,.87,0,.9,0,1.11a11.23,11.23,0,0,1-.37,2.26,16,16,0,0,1-1.65,4.52,9.35,9.35,0,0,1-2.59,3.06A6.78,6.78,0,0,1,149.91,152.85Z" transform="translate(-114.89 -103.95)"/></svg>