<svg id="Lag_2" data-name="Lag 2" xmlns="http://www.w3.org/2000/svg" viewBox="0 0 184.71 174.53"><defs><style>.cls-1{fill:none;stroke:#fff;stroke-miterlimit:10;stroke-width:6px;}</style></defs><path class="cls-1" d="M175.59,246.08,157,264.88l4.59,8.48c.2.45.5,1.09.92,1.84a26.1,26.1,0,0,0,2.52,3.67c1.15,1.45,2.28,2.91,3.44,4.35,2.18,2.73,2.91,3.91,4.13,5.51a57.87,57.87,0,0,0,7.79,8c7.54,6.93,11.32,10.39,12.15,11a56.39,56.39,0,0,0,18.81,8.94l16.74-15.59,38.29,7.57c.6.15,1.48.38,2.52.68,4,1.16,6,1.74,7.8,2.75a15.68,15.68,0,0,1,5.5,5.51,18.53,18.53,0,0,1,2.52,9.86c.16,6.54-2.25,11.37-3.9,14.67a42.1,42.1,0,0,1-10.54,13.3,44.15,44.15,0,0,1-10.78,6.65,46.08,46.08,0,0,1-26.14,3,134.26,134.26,0,0,1-31.19-9.86c-19.5-9.31-35.54-22.6-41.5-27.74,0,0-27.34-23.61-43.11-52.05a120.51,120.51,0,0,1-6-12.61,69.76,69.76,0,0,1-4.81-16.51c-.7-4.83-1.66-12,.91-20.64a40.43,40.43,0,0,1,8.49-15.36,38.64,38.64,0,0,1,12.38-8.95,41.13,41.13,0,0,1,14.45-3.9c4.19-.31,8.44-.57,12.38,1.84a18.66,18.66,0,0,1,4.58,4.13,17.87,17.87,0,0,1,2.53,4.35Z" transform="translate(-103.03 -194.27)"/></svg>