<svg id="Lag_2" data-name="Lag 2" xmlns="http://www.w3.org/2000/svg" viewBox="0 0 116.93 127.91"><defs><style>.cls-1{fill:none;stroke:#fff;stroke-miterlimit:10;stroke-width:4px;}</style></defs><rect class="cls-1" x="2" y="12.98" width="112.93" height="112.93" rx="5.84"/><line class="cls-1" x1="3.94" y1="35.91" x2="114.93" y2="36.36"/><rect class="cls-1" x="18.62" y="51.04" width="15.13" height="15.13"/><rect class="cls-1" x="40.52" y="51.04" width="15.13" height="15.13"/><rect class="cls-1" x="61.84" y="51.04" width="15.13" height="15.13"/><rect class="cls-1" x="83.39" y="51.04" width="15.13" height="15.13"/><rect class="cls-1" x="83.39" y="72.71" width="15.13" height="15.13"/><rect class="cls-1" x="61.84" y="72.71" width="15.13" height="15.13"/><rect class="cls-1" x="40.52" y="72.71" width="15.13" height="15.13"/><rect class="cls-1" x="18.62" y="72.71" width="15.13" height="15.13"/><rect class="cls-1" x="61.84" y="95.18" width="15.13" height="15.13"/><rect class="cls-1" x="39.6" y="95.18" width="15.13" height="15.13"/><rect class="cls-1" x="18.62" y="95.18" width="15.13" height="15.13"/><path class="cls-1" d="M235.55,355.11v-3.56a4.37,4.37,0,0,1,0-1,5.23,5.23,0,0,1,3.15-4.07,5.46,5.46,0,0,1,3.61-.11,6.06,6.06,0,0,1,2.64,1.55,3.18,3.18,0,0,1,1.15,2.4v4.82" transform="translate(-218.65 -344.08)"/><path class="cls-1" d="M271.28,355.89v-3.55a4.38,4.38,0,0,1,0-1,5.2,5.2,0,0,1,3.15-4.07,5.48,5.48,0,0,1,3.61-.12,6.12,6.12,0,0,1,2.64,1.55,3.62,3.62,0,0,1,1.09,1.83,3.56,3.56,0,0,1,.05.58v4.81" transform="translate(-218.65 -344.08)"/><path class="cls-1" d="M308.77,355.62v-3.55a4.46,4.46,0,0,1,0-1,5.23,5.23,0,0,1,3.15-4.07,5.46,5.46,0,0,1,3.61-.11,6.06,6.06,0,0,1,2.64,1.55,3.62,3.62,0,0,1,1.09,1.83,5.29,5.29,0,0,1,.06.57v4.82" transform="translate(-218.65 -344.08)"/><path class="cls-1" d="M271.86,358.09v3.55a4.46,4.46,0,0,0,0,1,5.23,5.23,0,0,0,3.15,4.07,5.46,5.46,0,0,0,3.61.11,6.06,6.06,0,0,0,2.64-1.55,3.62,3.62,0,0,0,1.09-1.83,3.47,3.47,0,0,0,0-.58v-4.81" transform="translate(-218.65 -344.08)"/><path class="cls-1" d="M308.77,358.09v3.55a4.46,4.46,0,0,0,0,1,5.23,5.23,0,0,0,3.15,4.07,5.46,5.46,0,0,0,3.61.11,6.06,6.06,0,0,0,2.64-1.55,3.62,3.62,0,0,0,1.09-1.83,5.43,5.43,0,0,0,.06-.58v-4.81" transform="translate(-218.65 -344.08)"/><path class="cls-1" d="M235.55,358.09v3.55a4.46,4.46,0,0,0,0,1,5.23,5.23,0,0,0,3.15,4.07,5.46,5.46,0,0,0,3.61.11,6.06,6.06,0,0,0,2.64-1.55,3.62,3.62,0,0,0,1.09-1.83,3.66,3.66,0,0,0,.06-.58v-4.81" transform="translate(-218.65 -344.08)"/></svg>