<svg id="Lag_2" data-name="Lag 2" xmlns="http://www.w3.org/2000/svg" viewBox="0 0 205.21 55.48"><defs><style>.cls-1,.cls-2{fill:none;stroke:#282e69;stroke-miterlimit:10;}.cls-1{stroke-width:3px;}.cls-2{stroke-width:2px;}.cls-3{fill:#282e69;}</style></defs><path class="cls-1" d="M149.91,152.85a2.69,2.69,0,0,1-.93,0,3.1,3.1,0,0,1-1.33-.68,5.72,5.72,0,0,1-1.58-2.51c-.76-2.14-1.28-3.85-1.39-4.24s-.6-1.76-1.58-4.61a9.06,9.06,0,0,0-1.77-3.5,3.32,3.32,0,0,0-2-1.24,3,3,0,0,0-1.88.41c-1,.55-1.46,1.48-2.11,3.12-.94,2.41-1.16,3.54-2.23,6.69-.21.63-.53,1.54-1,2.69a11.44,11.44,0,0,1-1,2.2,4.33,4.33,0,0,1-2.35,1.76c-2.28.55-4.33-1.76-4.61-2.07a8.44,8.44,0,0,1-1.34-2.23,18.47,18.47,0,0,1-1.48-4.46,44.39,44.39,0,0,1-.34-5.26c0-1-.09-1.89-.19-3.74a28.57,28.57,0,0,0-.34-4.28,19.61,19.61,0,0,0-.93-3.25c-.23-.6-.39-1-1.42-3.15A18.08,18.08,0,0,1,117,122a11,11,0,0,1-.34-1.64,14.66,14.66,0,0,1-.15-4.08,11.39,11.39,0,0,1,1.92-4.86,13.61,13.61,0,0,1,3.09-3.41,12.12,12.12,0,0,1,6-2.51,12.3,12.3,0,0,1,5.08.56c1.81.57,1.69,1.14,3.55,1.74a8.09,8.09,0,0,0,5,.3c.86-.27.83-.49,2.63-1.26a21.32,21.32,0,0,1,2.75-1,12.08,12.08,0,0,1,5.95,0,11.87,11.87,0,0,1,5.2,2.91,13.84,13.84,0,0,1,3,5,11.64,11.64,0,0,1,.65,3.8,19,19,0,0,1-.09,3.1,12.84,12.84,0,0,1-.84,3c-1,2.64-2.53,4.75-2.85,6.32a10.87,10.87,0,0,0-.18,1.45c0,.25,0,.52,0,1s0,1.07,0,1.33c0,.51,0,1,0,2.05,0,1.23,0,1.49,0,2.35,0,1.26,0,2.57,0,2.57,0,.87,0,.9,0,1.11a11.23,11.23,0,0,1-.37,2.26,16,16,0,0,1-1.65,4.52,9.35,9.35,0,0,1-2.59,3.06A6.78,6.78,0,0,1,149.91,152.85Z" transform="translate(-114.89 -100.19)"/><line class="cls-2" x1="56.57" x2="56.57" y2="55.48"/><path class="cls-3" d="M192.71,111.54h-4.19v12H185.2v-12H181v-2.7h11.69Z" transform="translate(-114.89 -100.19)"/><path class="cls-3" d="M204.16,123.54H201.1V122h0a3.41,3.41,0,0,1-3.12,1.76,3.28,3.28,0,0,1-2.41-.87,3.12,3.12,0,0,1-.87-2.31c0-2,1.2-3.21,3.62-3.53l2.85-.38c0-1.15-.63-1.72-1.87-1.72a6.35,6.35,0,0,0-3.57,1.12v-2.44a8.25,8.25,0,0,1,1.85-.62,10.2,10.2,0,0,1,2.14-.26q4.49,0,4.49,4.48Zm-3-4.26v-.71l-1.91.25c-1.05.13-1.58.61-1.58,1.42a1.21,1.21,0,0,0,.38.91,1.53,1.53,0,0,0,1.05.35,1.91,1.91,0,0,0,1.48-.63A2.29,2.29,0,0,0,201.12,119.28Z" transform="translate(-114.89 -100.19)"/><path class="cls-3" d="M217.92,123.54h-3.23v-5.83c0-1.63-.58-2.44-1.75-2.44a1.72,1.72,0,0,0-1.38.64,2.47,2.47,0,0,0-.54,1.64v6h-3.24V113H211v1.66h0a3.71,3.71,0,0,1,3.37-1.91c2.32,0,3.49,1.44,3.49,4.32Z" transform="translate(-114.89 -100.19)"/><path class="cls-3" d="M231.8,123.54h-3.24V122.1h0a3.64,3.64,0,0,1-3.25,1.7,4,4,0,0,1-3.17-1.39,5.76,5.76,0,0,1-1.2-3.88,6.29,6.29,0,0,1,1.33-4.18,4.31,4.31,0,0,1,3.46-1.56,2.94,2.94,0,0,1,2.83,1.45h0V108h3.24Zm-3.17-5.1v-.79a2.5,2.5,0,0,0-.6-1.71,2.11,2.11,0,0,0-3.23.17,4,4,0,0,0-.6,2.33,3.4,3.4,0,0,0,.58,2.13,2.07,2.07,0,0,0,3.22,0A3.27,3.27,0,0,0,228.63,118.44Z" transform="translate(-114.89 -100.19)"/><path class="cls-3" d="M238.82,123.54h-3.24V108h3.24Z" transform="translate(-114.89 -100.19)"/><path class="cls-3" d="M258.05,119.22h-6.84c.14,1.52,1.1,2.28,2.89,2.28a5.91,5.91,0,0,0,3-.82V123a8.66,8.66,0,0,1-3.88.8,4.69,4.69,0,0,1-4.08-1.84h0a4.5,4.5,0,0,1-3.71,1.84,3.86,3.86,0,0,1-2.66-.85,3,3,0,0,1-1-2.35,3.09,3.09,0,0,1,1-2.4,4.65,4.65,0,0,1,2.84-1l2.62-.2c0-1.31-.63-2-1.89-2a6.55,6.55,0,0,0-3.52,1.1v-2.42a9,9,0,0,1,3.79-.88,3.69,3.69,0,0,1,3.32,1.37h0a4.51,4.51,0,0,1,3.35-1.37,4.42,4.42,0,0,1,3.44,1.36,5.3,5.3,0,0,1,1.25,3.74Zm-9.78.08v-.46l-1.6.13c-1.26.1-1.89.55-1.89,1.34a1.08,1.08,0,0,0,.4.85,1.56,1.56,0,0,0,1,.34,1.92,1.92,0,0,0,1.46-.61A2.19,2.19,0,0,0,248.27,119.3Zm6.79-2.07c0-1.51-.61-2.26-1.82-2.26a1.74,1.74,0,0,0-1.34.64,2.73,2.73,0,0,0-.69,1.62Z" transform="translate(-114.89 -100.19)"/><path class="cls-3" d="M271.33,122.34a5.94,5.94,0,0,1-1.69,4.53,6.84,6.84,0,0,1-4.9,1.6,7.83,7.83,0,0,1-3.36-.6v-2.73a6.44,6.44,0,0,0,3.27,1,3.51,3.51,0,0,0,2.54-.87,3.11,3.11,0,0,0,.9-2.35V122h0a3.61,3.61,0,0,1-3.27,1.76,3.93,3.93,0,0,1-3.19-1.42,5.75,5.75,0,0,1-1.18-3.79,6.38,6.38,0,0,1,1.32-4.24,4.28,4.28,0,0,1,3.45-1.56,3.18,3.18,0,0,1,2.87,1.47h0V113h3.24Zm-3.19-3.84v-.83a2.57,2.57,0,0,0-.59-1.7,1.92,1.92,0,0,0-1.54-.7,2,2,0,0,0-1.69.84,4,4,0,0,0-.61,2.37,3.33,3.33,0,0,0,.58,2.07,1.9,1.9,0,0,0,1.6.77,2,2,0,0,0,1.63-.78A3.16,3.16,0,0,0,268.14,118.5Z" transform="translate(-114.89 -100.19)"/><path class="cls-3" d="M284.53,119.22h-6.85q.17,2.28,2.88,2.28a5.58,5.58,0,0,0,3-.82V123a8,8,0,0,1-3.78.78,4.88,4.88,0,0,1-5.35-5.34,5.63,5.63,0,0,1,1.51-4.15,5.11,5.11,0,0,1,3.74-1.52,4.58,4.58,0,0,1,3.55,1.36,5.24,5.24,0,0,1,1.26,3.7Zm-3-2c0-1.51-.61-2.26-1.82-2.26a1.75,1.75,0,0,0-1.35.65,2.89,2.89,0,0,0-.69,1.61Z" transform="translate(-114.89 -100.19)"/><path class="cls-3" d="M294.35,116a2.81,2.81,0,0,0-1.36-.31,2,2,0,0,0-1.65.77,3.37,3.37,0,0,0-.6,2.11v5H287.5V113h3.24V115h0a2.81,2.81,0,0,1,2.77-2.13,2.1,2.1,0,0,1,.8.12Z" transform="translate(-114.89 -100.19)"/><path class="cls-3" d="M307.05,123.54h-3.23v-5.83c0-1.63-.58-2.44-1.74-2.44a1.75,1.75,0,0,0-1.39.64,2.47,2.47,0,0,0-.54,1.64v6h-3.24V113h3.24v1.66h0a3.72,3.72,0,0,1,3.37-1.91q3.49,0,3.49,4.32Z" transform="translate(-114.89 -100.19)"/><path class="cls-3" d="M320.1,119.22h-6.85q.17,2.28,2.88,2.28a5.61,5.61,0,0,0,3.05-.82V123a8.05,8.05,0,0,1-3.79.78,4.88,4.88,0,0,1-5.35-5.34,5.6,5.6,0,0,1,1.52-4.15,5.07,5.07,0,0,1,3.73-1.52,4.58,4.58,0,0,1,3.55,1.36,5.24,5.24,0,0,1,1.26,3.7Zm-3-2c0-1.51-.6-2.26-1.82-2.26a1.75,1.75,0,0,0-1.35.65,2.89,2.89,0,0,0-.69,1.61Z" transform="translate(-114.89 -100.19)"/><path class="cls-3" d="M188.52,142.91a6.69,6.69,0,0,1-1.37,4.52,5,5,0,0,1-4,1.57,5.55,5.55,0,0,1-2.14-.4v-3.11a3.06,3.06,0,0,0,1.9.65c1.51,0,2.27-1.12,2.27-3.37V134h3.3Z" transform="translate(-114.89 -100.19)"/><path class="cls-3" d="M204.61,148.74h-3.23v-1.6h0a3.66,3.66,0,0,1-3.21,1.86q-3.65,0-3.65-4.42v-6.34h3.23v6c0,1.49.59,2.23,1.76,2.23a1.77,1.77,0,0,0,1.4-.61,2.46,2.46,0,0,0,.52-1.66v-6h3.23Z" transform="translate(-114.89 -100.19)"/><path class="cls-3" d="M220,144.42h-6.85q.17,2.28,2.88,2.28a5.58,5.58,0,0,0,3-.82v2.34a8,8,0,0,1-3.78.78,4.88,4.88,0,0,1-5.35-5.34,5.63,5.63,0,0,1,1.51-4.15,5.11,5.11,0,0,1,3.74-1.52,4.58,4.58,0,0,1,3.55,1.36,5.24,5.24,0,0,1,1.26,3.7Zm-3-2c0-1.51-.61-2.26-1.82-2.26a1.75,1.75,0,0,0-1.35.65,2.89,2.89,0,0,0-.69,1.61Z" transform="translate(-114.89 -100.19)"/><path class="cls-3" d="M228.37,148.74h-3.24V133.2h3.24Z" transform="translate(-114.89 -100.19)"/><path class="cls-3" d="M233.62,148.47v-2.63a7.05,7.05,0,0,0,1.6.72,5.17,5.17,0,0,0,1.5.23,3.23,3.23,0,0,0,1.36-.23.76.76,0,0,0,.49-.72.65.65,0,0,0-.22-.51,2,2,0,0,0-.58-.36,7.08,7.08,0,0,0-.78-.28q-.42-.12-.81-.27a8.74,8.74,0,0,1-1.1-.51,3.19,3.19,0,0,1-.8-.63,2.57,2.57,0,0,1-.49-.83,3.43,3.43,0,0,1-.17-1.12,2.86,2.86,0,0,1,.39-1.52,3.07,3.07,0,0,1,1-1,4.58,4.58,0,0,1,1.47-.59,7.41,7.41,0,0,1,1.71-.19,9.78,9.78,0,0,1,1.42.1,11.08,11.08,0,0,1,1.41.32v2.5a5,5,0,0,0-1.31-.54,5.57,5.57,0,0,0-1.38-.18,2.91,2.91,0,0,0-.6.06,2.1,2.1,0,0,0-.5.16,1,1,0,0,0-.34.28.64.64,0,0,0-.12.38.71.71,0,0,0,.18.49,1.68,1.68,0,0,0,.49.36,4.11,4.11,0,0,0,.66.27q.36.1.72.24a9.16,9.16,0,0,1,1.17.49,3.77,3.77,0,0,1,.9.62,2.41,2.41,0,0,1,.57.84,3.11,3.11,0,0,1,.2,1.15,3,3,0,0,1-.4,1.6,3.16,3.16,0,0,1-1.08,1.07,4.88,4.88,0,0,1-1.55.61,8.32,8.32,0,0,1-1.82.19A9.56,9.56,0,0,1,233.62,148.47Z" transform="translate(-114.89 -100.19)"/><path class="cls-3" d="M263.43,148.74H260.2v-6q0-2.28-1.68-2.28a1.55,1.55,0,0,0-1.3.68,2.8,2.8,0,0,0-.5,1.72v5.87h-3.24v-6.05q0-2.22-1.65-2.22a1.59,1.59,0,0,0-1.33.65,2.93,2.93,0,0,0-.5,1.79v5.83h-3.24v-10.5H250v1.64h0a4,4,0,0,1,1.41-1.37,3.92,3.92,0,0,1,2-.52,3,3,0,0,1,3,1.95A3.89,3.89,0,0,1,260,138c2.28,0,3.42,1.4,3.42,4.22Z" transform="translate(-114.89 -100.19)"/><path class="cls-3" d="M270.85,136.58a1.84,1.84,0,0,1-1.34-.49,1.56,1.56,0,0,1-.53-1.19,1.51,1.51,0,0,1,.53-1.19,1.91,1.91,0,0,1,1.34-.46,2,2,0,0,1,1.35.46,1.54,1.54,0,0,1,.52,1.19,1.58,1.58,0,0,1-.52,1.21A2,2,0,0,1,270.85,136.58Zm1.6,12.16h-3.24v-10.5h3.24Z" transform="translate(-114.89 -100.19)"/><path class="cls-3" d="M288.53,148.74H285.3v-5.83c0-1.63-.58-2.44-1.74-2.44a1.75,1.75,0,0,0-1.39.64,2.47,2.47,0,0,0-.54,1.64v6h-3.24v-10.5h3.24v1.66h0A3.72,3.72,0,0,1,285,138q3.49,0,3.49,4.32Z" transform="translate(-114.89 -100.19)"/><path class="cls-3" d="M304.58,148.74h-3.24V147.3h0a3.64,3.64,0,0,1-3.25,1.7,4,4,0,0,1-3.17-1.39,5.76,5.76,0,0,1-1.2-3.88,6.24,6.24,0,0,1,1.32-4.17,4.32,4.32,0,0,1,3.47-1.57,3,3,0,0,1,2.83,1.45h0V133.2h3.24Zm-3.18-5.1v-.79a2.54,2.54,0,0,0-.59-1.71,2.11,2.11,0,0,0-3.23.17,4,4,0,0,0-.61,2.33,3.4,3.4,0,0,0,.59,2.13,1.94,1.94,0,0,0,1.62.75,2,2,0,0,0,1.6-.79A3.27,3.27,0,0,0,301.4,143.64Z" transform="translate(-114.89 -100.19)"/><path class="cls-3" d="M320,144.42h-6.85c.1,1.52,1.07,2.28,2.88,2.28a5.58,5.58,0,0,0,3-.82v2.34a8,8,0,0,1-3.78.78,4.88,4.88,0,0,1-5.35-5.34,5.63,5.63,0,0,1,1.51-4.15,5.11,5.11,0,0,1,3.74-1.52,4.58,4.58,0,0,1,3.55,1.36,5.24,5.24,0,0,1,1.26,3.7Zm-3-2c0-1.51-.61-2.26-1.82-2.26a1.75,1.75,0,0,0-1.35.65,2.89,2.89,0,0,0-.69,1.61Z" transform="translate(-114.89 -100.19)"/></svg>