<svg id="Lag_4" data-name="Lag 4" xmlns="http://www.w3.org/2000/svg" viewBox="0 0 111.49 115.64"><defs><style>.cls-1{fill:none;stroke:#232856;stroke-linecap:round;stroke-miterlimit:10;stroke-width:3px;}</style></defs><path class="cls-1" d="M179.25,544.39,158.39,532a7,7,0,0,1-1.38-7.79c1.18-2.32,4.06-4.11,6.42-3.44a4,4,0,0,1,1.61.91l29.58,17.43a15.82,15.82,0,0,1,6.19,5.73,14.82,14.82,0,0,1,1.6,3.67v30.73H182v-19l-3.21-2.76-25-20.17v-53a2.24,2.24,0,0,1,0-1.38c.71-1.91,5-3.08,7.34-1.14,2,1.61,1.64,4.54,1.61,4.81l.68,31.87" transform="translate(-152.19 -465.11)"/><path class="cls-1" d="M236.62,544.39,257.48,532a7,7,0,0,0,1.38-7.79c-1.18-2.32-4.06-4.11-6.42-3.44a4,4,0,0,0-1.61.91l-29.58,17.43a15.82,15.82,0,0,0-6.19,5.73,14.82,14.82,0,0,0-1.6,3.67v30.73h20.4v-19l3.21-2.76,25-20.17v-53a2.24,2.24,0,0,0,0-1.38c-.71-1.91-5-3.08-7.34-1.14-2,1.61-1.64,4.54-1.6,4.81l-.69,31.87" transform="translate(-152.19 -465.11)"/><path class="cls-1" d="M208.18,528.73l-31.91-30.42a17.27,17.27,0,0,1-1.6-1.61,18.42,18.42,0,0,1-3.9-16.28c2.15-8.5,9.71-11.84,11-12.38,6.77-2.84,12.9-.7,14.9,0a23.49,23.49,0,0,1,11.24,8.48c.83-.75,1.75-1.52,2.75-2.29a47.07,47.07,0,0,1,4.36-3c3.28-2,5.39-3.27,8-3.9a18.24,18.24,0,0,1,11.47,1.38,17.89,17.89,0,0,1,9.17,7.79,18.1,18.1,0,0,1,1.83,10.09,18.38,18.38,0,0,1-3.21,10.32,16.18,16.18,0,0,1-2.52,2.75Z" transform="translate(-152.19 -465.11)"/></svg>