<svg id="Lag_2" data-name="Lag 2" xmlns="http://www.w3.org/2000/svg" viewBox="0 0 89.1 129.91"><defs><style>.cls-1{fill:none;stroke:#fff;stroke-miterlimit:10;stroke-width:4px;}</style></defs><path class="cls-1" d="M184.57,261.38l-25.72-38.69a174.89,174.89,0,0,1-8.49-15.59c-3-6.33-4.77-10-6.19-15.37-1.17-4.48-2.64-10.07-1.83-17.42a41.74,41.74,0,0,1,5.73-16.74,42.29,42.29,0,0,1,39.44-20.42,44.09,44.09,0,0,1,20.64,7.35c3.17,2.13,13.4,9.2,17.42,22.7a41.75,41.75,0,0,1,.69,20.41,43.39,43.39,0,0,1-3,9.17L216.63,211l-16.28,27.75Z" transform="translate(-140.11 -135.02)"/><circle class="cls-1" cx="44.47" cy="44.39" r="18.86"/></svg>